<?xml version="1.0" encoding="UTF-8"?>
<svg id="Layer_1" data-name="Layer 1" xmlns="http://www.w3.org/2000/svg" viewBox="0 0 180 55.38">
  <defs>
    <style>
      .cls-1 {
        fill: #010101;
      }

      .cls-2, .cls-3 {
        fill: #fff;
      }

      .cls-4, .cls-3 {
        isolation: isolate;
      }

      .cls-3 {
        font-family: Arial-BoldMT, Arial;
        font-size: 13.2px;
        font-weight: 700;
      }
    </style>
  </defs>
  <rect class="cls-1" width="180" height="55.38" rx="5.56" ry="5.56"/>
  <path class="cls-2" d="m16.56,8.13c-1.92,1.14-5.7,5.49-5.74,6.63v1.89c0,2.39,2.24,4.49,4.27,4.49,2.44,0,4.47-2.02,4.47-4.42,0,2.4,1.96,4.42,4.4,4.42s4.34-2.02,4.34-4.42c0,2.4,2.09,4.42,4.52,4.42h.04c2.44,0,4.52-2.02,4.52-4.42,0,2.4,1.9,4.42,4.34,4.42s4.4-2.02,4.4-4.42c0,2.4,2.03,4.42,4.47,4.42,2.03,0,4.27-2.1,4.27-4.5v-1.89c-.04-1.14-3.82-5.49-5.74-6.63-5.97-.21-10.11-.25-16.28-.25-6.17,0-14.58.1-16.28.25h0Zm11.7,11.88c-.23.41-.52.78-.86,1.11-.95.94-2.24,1.46-3.57,1.46-1.34,0-2.62-.52-3.58-1.46-.32-.32-.6-.68-.82-1.08h0c-.23.41-.56.76-.89,1.08-.96.93-2.24,1.46-3.58,1.46-.16,0-.33-.04-.48-.09-.17,1.8-.27,3.61-.31,5.41h0s-.01,2.15-.01,2.15c.04,4.28-.42,13.88,1.89,16.23,3.58.83,10.17,1.22,16.79,1.22h0c6.61,0,13.21-.38,16.79-1.22,2.31-2.36,1.85-11.95,1.89-16.24v-2.14s-.01,0-.01,0c-.04-1.81-.14-3.61-.31-5.41-.15.06-.32.09-.48.09-1.34,0-2.62-.52-3.58-1.46-.33-.33-.66-.68-.89-1.08h0c-.22.4-.5.76-.82,1.08-.96.94-2.24,1.46-3.58,1.46-1.34,0-2.62-.52-3.57-1.46-.34-.33-.62-.7-.86-1.11-.23.41-.52.78-.85,1.11-.96.94-2.24,1.46-3.58,1.46-.05,0-.1,0-.15,0h0s-.1,0-.15,0c-1.34,0-2.62-.52-3.58-1.46-.33-.33-.62-.7-.85-1.1h0Zm-3.68,4.75h0s0,0,0,0c1.46,0,2.75,0,4.35,1.75,1.3-.13,2.6-.2,3.9-.2,1.3,0,2.6.06,3.9.2,1.6-1.75,2.9-1.75,4.35-1.75h0c.69,0,3.44,0,5.36,5.38l2.06,7.39c1.53,5.49-.49,5.63-3,5.63-3.73-.14-5.79-2.85-5.79-5.55-2.06.34-4.47.51-6.88.51s-4.81-.17-6.88-.51c0,2.71-2.06,5.41-5.79,5.55-2.51,0-4.53-.14-3-5.64l2.06-7.39c1.92-5.38,4.67-5.38,5.36-5.38h0Zm8.25,4.23s-3.92,3.6-4.63,4.88l2.57-.1v2.24c0,.1,1.03.06,2.06.01,1.03.05,2.06.09,2.06-.01v-2.24l2.57.1c-.71-1.28-4.63-4.88-4.63-4.88h0Z"/>
  <path class="cls-2" d="m69.74,46.21v-17.91h6.04v17.91h-6.04Zm3.06-19.37c-1.02,0-1.81-.25-2.37-.76-.53-.51-.8-1.19-.8-2.04,0-.8.27-1.48.8-2.04.56-.56,1.35-.84,2.37-.84s1.8.28,2.33.84c.56.56.84,1.24.84,2.04,0,.85-.28,1.53-.84,2.04-.53.51-1.31.76-2.33.76Zm12,19.73c-1.75,0-3.07-.46-3.97-1.38-.87-.95-1.31-2.26-1.31-3.93v-8.48h-2.4v-4.48h2.4v-4.37h6.04v4.37h3.93v4.48h-3.93v7.61c0,.56.11.96.33,1.2.24.22.61.33,1.09.33.66,0,1.37-.29,2.15-.87l1.38,3.97c-.7.49-1.5.87-2.4,1.16-.9.27-2,.4-3.31.4h0Zm14.87,0c-2.77,0-4.95-.79-6.55-2.37-1.58-1.58-2.37-3.87-2.37-6.88,0-2.18.45-4.02,1.35-5.5.92-1.53,2.08-2.56,3.46-3.1,1.46-.56,2.8-.84,4.04-.84,1.55,0,2.85.32,3.9.95,1.04.61,1.81,1.27,2.29,2,.51.73.87,1.3,1.09,1.71l-4.19,2.69c-.39-.8-.81-1.43-1.27-1.89-.46-.46-1.02-.69-1.67-.69-.92,0-1.65.36-2.18,1.09-.53.73-.8,1.83-.8,3.31,0,1.6.32,2.78.95,3.53.63.75,1.53,1.13,2.69,1.13.92,0,1.69-.17,2.29-.51.63-.34,1.23-.78,1.78-1.31l1.93,4.51c-.58.48-1.44.97-2.59,1.46-1.14.46-2.52.69-4.15.69h0Zm8.79-.36v-24.32h6.08v7.39c.51-.36,1.13-.68,1.86-.95.73-.29,1.6-.44,2.62-.44,2.14,0,3.73.61,4.77,1.82,1.07,1.21,1.6,2.93,1.6,5.14v11.36h-6.08v-10.63c0-1.02-.19-1.76-.58-2.22-.39-.48-.9-.73-1.53-.73-.53,0-1.03.12-1.49.36-.46.24-.85.5-1.16.77v12.45h-6.08Zm21.6.36c-.97,0-1.74-.28-2.29-.84-.56-.56-.84-1.27-.84-2.15s.28-1.6.84-2.18c.56-.58,1.32-.87,2.29-.87s1.66.29,2.22.87c.56.58.84,1.31.84,2.18s-.28,1.59-.84,2.15c-.53.56-1.27.84-2.22.84h0Zm4.47-.36v-17.91h6.04v17.91h-6.04Zm3.06-19.37c-1.02,0-1.81-.25-2.37-.76-.53-.51-.8-1.19-.8-2.04,0-.8.27-1.48.8-2.04.56-.56,1.35-.84,2.37-.84,1.02,0,1.8.28,2.33.84.56.56.84,1.24.84,2.04,0,.85-.28,1.53-.84,2.04-.53.51-1.31.76-2.33.76h0Zm13.66,19.73c-1.41,0-2.66-.23-3.75-.69-1.09-.49-2.03-1.14-2.8-1.97-.75-.85-1.33-1.84-1.75-2.99-.39-1.17-.58-2.43-.58-3.79,0-2.01.44-3.77,1.31-5.28.9-1.48,2.02-2.51,3.35-3.09,1.36-.58,2.77-.87,4.22-.87,2.09,0,3.81.49,5.17,1.46,1.38.97,2.35,2.18,2.91,3.64.56,1.46.84,2.84.84,4.15s-.21,2.62-.62,3.79c-.39,1.14-.97,2.14-1.75,2.99-.75.83-1.69,1.48-2.8,1.97-1.09.46-2.34.69-3.75.69h0Zm0-4.66c1.02,0,1.76-.42,2.22-1.27.46-.87.69-2.04.69-3.5s-.24-2.49-.73-3.31c-.48-.83-1.21-1.24-2.18-1.24s-1.66.41-2.15,1.24c-.48.82-.73,1.93-.73,3.31,0,1.46.23,2.62.69,3.49.49.85,1.21,1.28,2.18,1.28h0Z"/>
  <g class="cls-4">
    <text class="cls-3" transform="translate(80.69 16.16)"><tspan x="0" y="0">available on</tspan></text>
  </g>
</svg>